<?xml version="1.0" standalone="no"?>
<!DOCTYPE svg PUBLIC "-//W3C//DTD SVG 20010904//EN"
 "http://www.w3.org/TR/2001/REC-SVG-20010904/DTD/svg10.dtd">
<svg version="1.0" xmlns="http://www.w3.org/2000/svg"
 width="512.000000pt" height="512.000000pt" viewBox="0 0 512.000000 512.000000"
 preserveAspectRatio="xMidYMid meet">
<metadata>
Created by potrace 1.16, written by Peter Selinger 2001-2019
</metadata>
<g transform="translate(0.000000,512.000000) scale(0.100000,-0.100000)"
fill="#000000" stroke="none">
<path d="M0 2560 l0 -2560 2560 0 2560 0 0 2560 0 2560 -2560 0 -2560 0 0
-2560z m1303 1623 c-7 -2 -21 -2 -30 0 -10 3 -4 5 12 5 17 0 24 -2 18 -5z
m2530 0 c-7 -2 -19 -2 -25 0 -7 3 -2 5 12 5 14 0 19 -2 13 -5z m-2643 -27 c0
-2 -7 -7 -16 -10 -8 -3 -12 -2 -9 4 6 10 25 14 25 6z m2766 -12 c18 -14 18
-14 -6 -3 -31 14 -36 19 -24 19 6 0 19 -7 30 -16z m-2826 -17 c0 -2 -15 -13
-32 -26 l-33 -22 28 25 c26 24 37 31 37 23z m2901 -33 c9 -11 2 -9 -18 6 -18
13 -33 25 -33 27 0 8 38 -17 51 -33z m-3007 -66 c-16 -18 -32 -37 -36 -42 -5
-6 -8 -7 -8 -3 0 8 60 77 68 77 3 0 -7 -15 -24 -32z m3097 -30 c15 -28 5 -21
-21 15 -15 20 -17 27 -6 18 9 -8 22 -23 27 -33z m-3153 -53 c-6 -14 -13 -23
-15 -21 -5 5 15 46 22 46 3 0 -1 -11 -7 -25z m3192 -19 c0 -12 -5 -7 -19 24
-11 24 -11 24 3 6 9 -11 16 -24 16 -30z m-3233 -113 c-3 -10 -5 -4 -5 12 0 17
2 24 5 18 2 -7 2 -21 0 -30z m3260 0 c-3 -10 -5 -4 -5 12 0 17 2 24 5 18 2 -7
2 -21 0 -30z m10 -1865 c-1 -337 -2 -64 -2 607 0 671 1 947 2 613 2 -333 2
-882 0 -1220z m-789 1675 c-53 -2 -143 -2 -200 0 -57 1 -13 3 97 3 110 0 156
-2 103 -3z m-335 -10 c-7 -2 -21 -2 -30 0 -10 3 -4 5 12 5 17 0 24 -2 18 -5z
m462 -13 c10 -11 16 -20 13 -20 -3 0 -13 9 -23 20 -10 11 -16 20 -13 20 3 0
13 -9 23 -20z m-518 4 c-3 -3 -12 -4 -19 -1 -8 3 -5 6 6 6 11 1 17 -2 13 -5z
m-40 -10 c-3 -3 -12 -4 -19 -1 -8 3 -5 6 6 6 11 1 17 -2 13 -5z m-77 -24 c-8
-5 -19 -10 -25 -10 -5 0 -3 5 5 10 8 5 20 10 25 10 6 0 3 -5 -5 -10z m657
-262 c-1 -51 -3 -12 -3 87 0 99 2 141 3 93 2 -48 2 -129 0 -180z m-1127 235
c73 -22 87 -43 28 -43 -23 0 -70 -5 -104 -11 -51 -9 -78 -8 -148 6 -85 17
-106 15 -106 -9 0 -32 49 -46 208 -62 78 -8 63 -24 -23 -24 -127 0 -246 35
-254 75 -4 23 35 54 69 56 14 0 41 7 60 14 52 20 199 18 270 -2z m430 12 c0
-2 -13 -11 -30 -20 -38 -19 -40 -11 -2 9 31 17 32 18 32 11z m-70 -39 c0 -2
-8 -10 -17 -17 -16 -13 -17 -12 -4 4 13 16 21 21 21 13z m-78 -69 c-18 -18
-32 -36 -32 -41 0 -4 -21 -51 -47 -104 -25 -53 -52 -115 -59 -137 -10 -33 -13
-35 -13 -14 -1 14 12 50 29 80 16 30 30 63 30 74 0 11 9 31 20 45 11 14 20 31
20 37 0 13 68 93 78 93 3 0 -8 -15 -26 -33z m-760 -9 c8 -57 200 -108 404
-108 103 0 160 -9 144 -23 -34 -27 -262 -37 -360 -17 -180 39 -279 102 -234
151 23 25 42 24 46 -3z m-239 -172 c7 -18 111 -34 406 -61 90 -8 166 -17 170
-20 4 -2 53 -5 108 -6 55 -1 107 -5 114 -9 23 -15 -81 -24 -256 -23 -244 1
-469 26 -537 60 -30 14 -52 48 -43 63 9 14 32 12 38 -4z m1719 -103 c-40 -2
-103 -2 -140 0 -37 2 -4 3 73 3 77 0 107 -2 67 -3z m-225 -9 c-3 -3 -12 -4
-19 -1 -8 3 -5 6 6 6 11 1 17 -2 13 -5z m-650 -71 c-3 -10 -5 -4 -5 12 0 17 2
24 5 18 2 -7 2 -21 0 -30z m453 17 c0 -11 -2 -20 -4 -20 -2 0 -6 9 -9 20 -3
11 -1 20 4 20 5 0 9 -9 9 -20z m-900 -90 c12 -16 18 -38 16 -52 -3 -12 -5 -29
-5 -35 -2 -33 -87 -51 -175 -36 l-38 6 6 45 c8 61 46 110 89 114 47 5 84 -10
107 -42z m920 35 c0 -8 -2 -15 -4 -15 -2 0 -6 7 -10 15 -3 8 -1 15 4 15 6 0
10 -7 10 -15z m-483 -47 c-2 -13 -4 -5 -4 17 -1 22 1 32 4 23 2 -10 2 -28 0
-40z m510 10 c-3 -8 -6 -5 -6 6 -1 11 2 17 5 13 3 -3 4 -12 1 -19z m231 -401
l237 -3 -240 1 -240 0 0 183 -1 182 3 -180 3 -180 238 -3z m-673 243 c0 -37
-3 -66 -7 -64 -4 3 -7 36 -6 75 0 38 3 67 7 64 3 -4 6 -37 6 -75z m161 -45
c-8 -10 -13 -9 -22 4 -17 22 -7 33 15 19 14 -8 16 -14 7 -23z m-842 -15 c19
-7 26 -17 26 -37 0 -41 20 -105 38 -126 27 -30 80 -48 124 -41 71 12 101 50
123 156 5 28 24 37 63 30 25 -5 32 -18 52 -90 6 -24 20 -52 31 -63 19 -19 19
-19 -20 -19 -30 0 -40 4 -44 20 -6 24 -39 26 -58 4 -10 -13 -10 -17 2 -25 10
-6 1 -9 -28 -9 -31 0 -45 -5 -53 -19 -5 -11 -11 -80 -12 -153 -1 -73 -3 -105
-5 -70 -2 34 -7 62 -11 62 -4 0 -15 -14 -25 -31 -9 -17 -23 -29 -30 -27 -22 8
-36 51 -30 95 7 50 -5 69 -50 78 -18 4 -53 14 -79 23 -39 13 -50 14 -60 4 -11
-11 -10 -15 2 -22 56 -32 84 -59 97 -95 8 -22 23 -60 33 -85 10 -25 22 -61 27
-80 8 -31 6 -37 -18 -57 -33 -28 -46 -28 -83 -4 -16 11 -34 17 -41 15 -6 -3
-18 2 -25 11 -7 8 -23 15 -36 15 -12 0 -29 7 -38 15 -8 8 -23 15 -33 15 -62 1
-105 101 -104 244 1 120 15 185 51 228 23 27 34 32 96 38 38 4 74 8 81 9 6 0
23 -3 37 -9z m613 -82 c-2 -13 -4 -3 -4 22 0 25 2 35 4 23 2 -13 2 -33 0 -45z
m273 21 c0 -5 5 -7 10 -4 6 4 10 -5 10 -19 0 -34 -5 -33 -24 4 -8 17 -10 30
-5 30 5 0 9 -5 9 -11z m4 -74 c3 -8 1 -15 -4 -15 -6 0 -10 7 -10 15 0 8 2 15
4 15 2 0 6 -7 10 -15z m-267 -27 c-3 -7 -5 -2 -5 12 0 14 2 19 5 13 2 -7 2
-19 0 -25z m-64 -35 c-13 -2 -35 -2 -50 0 -16 2 -5 4 22 4 28 0 40 -2 28 -4z
m64 1 c-3 -3 -12 -4 -19 -1 -8 3 -5 6 6 6 11 1 17 -2 13 -5z m1012 -43 c0 -14
-1 -14 -6 -1 -3 8 -13 24 -22 35 -16 20 -16 20 7 1 12 -11 22 -26 21 -35z
m-499 -52 c0 -44 -4 -78 -9 -75 -4 3 -6 18 -3 32 3 20 2 25 -7 19 -9 -5 -9 -1
1 14 10 17 10 25 0 42 -10 16 -10 24 -1 35 6 8 13 14 15 14 2 0 4 -36 4 -81z
m497 -16 c-3 -10 -5 -2 -5 17 0 19 2 27 5 18 2 -10 2 -26 0 -35z m-1985 -15
c-9 -9 -12 -7 -12 12 0 19 3 21 12 12 9 -9 9 -15 0 -24z m1975 -65 c-3 -10 -5
-4 -5 12 0 17 2 24 5 18 2 -7 2 -21 0 -30z m-488 -55 l-2 -43 -6 35 c-7 33 -5
50 5 50 2 0 3 -19 3 -42z m478 -35 c-3 -10 -5 -2 -5 17 0 19 2 27 5 18 2 -10
2 -26 0 -35z m-502 17 c3 -5 1 -10 -4 -10 -6 0 -11 5 -11 10 0 6 2 10 4 10 3
0 8 -4 11 -10z m-895 -82 c0 -21 -22 -33 -45 -24 -14 5 -14 9 0 37 13 25 19
28 31 18 8 -6 14 -20 14 -31z m1387 -20 c-2 -13 -4 -5 -4 17 -1 22 1 32 4 23
2 -10 2 -28 0 -40z m-1332 -113 c17 -13 17 -14 2 -9 -25 9 -37 37 -36 81 2 37
2 37 8 -9 4 -30 14 -54 26 -63z m845 80 c0 -8 -4 -15 -10 -15 -5 0 -10 7 -10
15 0 8 5 15 10 15 6 0 10 -7 10 -15z m477 -42 c-3 -10 -5 -4 -5 12 0 17 2 24
5 18 2 -7 2 -21 0 -30z m-22 -43 c-10 -11 -22 -20 -28 -20 -5 0 1 9 14 20 31
25 37 25 14 0z m-475 0 c0 -5 -4 -10 -10 -10 -5 0 -10 5 -10 10 0 6 5 10 10
10 6 0 10 -4 10 -10z m-577 -17 c-40 -2 -106 -2 -145 0 -40 1 -8 3 72 3 80 0
112 -2 73 -3z m104 1 c-3 -3 -12 -4 -19 -1 -8 3 -5 6 6 6 11 1 17 -2 13 -5z
m-8 -206 c-1 -106 -3 -185 -6 -175 -3 11 -14 17 -31 17 -20 0 -23 3 -13 9 8 5
20 7 28 4 10 -4 13 27 13 166 0 94 2 171 5 171 3 0 4 -87 4 -192z m96 133 c3
-5 1 -12 -5 -16 -5 -3 -10 1 -10 9 0 18 6 21 15 7z m-1535 -111 c11 -11 20
-27 20 -35 0 -20 10 -19 40 5 17 13 41 20 75 20 89 0 253 -42 270 -70 14 -22
34 -9 41 28 4 20 11 43 17 50 11 14 78 16 93 3 5 -5 38 -20 74 -34 36 -14 89
-37 117 -52 29 -14 57 -25 63 -25 5 0 7 -7 4 -15 -5 -12 5 -15 60 -15 53 0 66
-3 66 -15 0 -16 -9 -16 -187 0 -51 5 -53 4 -53 -20 0 -19 10 -30 48 -49 66
-33 172 -67 186 -59 17 10 41 46 41 63 0 21 62 49 108 50 41 0 99 -27 95 -45
-2 -5 16 -29 38 -52 40 -42 43 -43 105 -43 83 0 107 7 112 34 2 11 4 -44 4
-124 0 -80 -2 -127 -4 -104 -4 39 -5 40 -34 36 -22 -3 -33 -13 -44 -38 -8 -19
-19 -34 -25 -34 -6 0 -1 -14 11 -31 18 -26 20 -35 11 -50 -17 -27 -15 -46 7
-52 30 -7 71 4 71 20 0 8 3 12 8 10 4 -3 5 -83 2 -179 l-5 -173 -605 -1 c-333
0 -574 1 -537 3 46 3 65 7 61 15 -4 6 -17 41 -30 77 -17 52 -24 62 -29 46 -4
-11 -17 -40 -28 -65 -11 -25 -19 -49 -18 -53 1 -5 -7 -7 -16 -6 -10 1 -26 -2
-37 -6 -22 -10 -114 17 -173 51 -112 65 -228 210 -205 258 10 20 11 20 11 -6
1 -21 28 -82 48 -108 10 -12 23 29 23 72 0 25 6 73 14 105 8 32 17 78 20 101
6 41 5 43 -10 27 -12 -11 -25 -14 -48 -9 -48 10 -59 23 -53 64 7 46 46 245 57
290 5 19 14 58 20 85 15 73 58 97 100 55z m2384 -53 c24 -35 46 -145 46 -227
l0 -75 -20 25 c-11 14 -32 57 -47 95 l-28 70 -3 -40 c-2 -22 1 -65 7 -95 5
-30 13 -99 17 -153 6 -98 6 -99 -21 -127 -21 -22 -26 -35 -22 -57 6 -27 66
-345 67 -350 0 -2 21 -4 48 -4 l47 -2 -55 -7 c-56 -7 -253 -14 -408 -15 l-83
0 -4 460 c-3 290 -1 466 5 475 8 12 10 9 10 -12 0 -30 1 -31 24 -22 9 3 13 10
11 15 -3 5 7 11 22 14 15 4 37 10 48 15 11 4 50 13 86 19 54 9 74 8 109 -4 39
-14 44 -14 67 5 34 26 59 25 77 -3z m-2575 -299 c-1 -41 -1 -42 -11 -15 -5 15
-7 34 -4 42 10 27 16 16 15 -27z m-2 -100 c-3 -7 -5 -2 -5 12 0 14 2 19 5 13
2 -7 2 -19 0 -25z m1630 -160 c-2 -13 -4 -3 -4 22 0 25 2 35 4 23 2 -13 2 -33
0 -45z m1640 -25 c-3 -10 -5 -4 -5 12 0 17 2 24 5 18 2 -7 2 -21 0 -30z
m-3260 -5 c-3 -8 -6 -5 -6 6 -1 11 2 17 5 13 3 -3 4 -12 1 -19z m3224 -101
c-10 -9 -11 -8 -5 6 3 10 9 15 12 12 3 -3 0 -11 -7 -18z m-30 -55 c-5 -9 -19
-26 -32 -37 -17 -15 -15 -10 7 17 32 41 40 48 25 20z m-96 -102 c-3 -5 -16
-15 -28 -21 -19 -9 -19 -8 3 10 28 23 34 26 25 11z m-69 -45 c-11 -8 -25 -15
-30 -15 -6 1 0 7 14 15 32 19 40 18 16 0z m-113 -42 c-7 -2 -21 -2 -30 0 -10
3 -4 5 12 5 17 0 24 -2 18 -5z m-152 -14 c-47 -5 -89 -5 -93 -1 -5 5 33 9 84
9 l93 1 -84 -9z"/>
<path d="M1660 1565 c-15 -18 -24 -86 -16 -118 10 -40 136 -114 294 -173 34
-13 73 -24 86 -24 25 0 42 25 26 35 -13 8 -13 65 0 65 13 0 13 33 -1 64 -12
25 -16 27 -134 65 -38 12 -105 40 -147 62 -86 44 -91 45 -108 24z"/>
<path d="M1601 1227 c-32 -32 11 -180 74 -257 l40 -49 151 -1 c151 0 152 0
168 25 9 14 14 31 10 37 -4 6 -7 26 -6 45 1 19 -4 35 -11 37 -116 31 -310 111
-352 146 -24 20 -62 29 -74 17z"/>
<path d="M2490 1061 c-20 -5 -26 -14 -28 -41 -2 -19 -8 -41 -14 -47 -7 -9 -7
-17 1 -26 6 -8 8 -17 4 -20 -3 -4 15 -7 40 -7 l47 0 0 75 c0 79 0 80 -50 66z"/>
<path d="M3071 1319 c0 -14 2 -29 6 -33 4 -3 8 -28 10 -54 2 -26 8 -62 13 -80
10 -39 -12 -174 -35 -208 -13 -21 -12 -22 16 -26 17 -3 42 -3 55 0 19 3 22 7
14 23 -6 10 -10 44 -9 76 1 43 -14 222 -20 240 -1 1 -10 10 -20 20 -11 10 -21
29 -24 43 l-4 25 -2 -26z"/>
</g>
</svg>
