<?xml version="1.0" standalone="no"?>
<!DOCTYPE svg PUBLIC "-//W3C//DTD SVG 20010904//EN"
 "http://www.w3.org/TR/2001/REC-SVG-20010904/DTD/svg10.dtd">
<svg version="1.0" xmlns="http://www.w3.org/2000/svg"
 width="512.000000pt" height="512.000000pt" viewBox="0 0 512.000000 512.000000"
 preserveAspectRatio="xMidYMid meet">
<metadata>
Created by potrace 1.16, written by Peter Selinger 2001-2019
</metadata>
<g transform="translate(0.000000,512.000000) scale(0.100000,-0.100000)"
fill="#000000" stroke="none">
<path d="M0 2560 l0 -2560 993 1 c887 0 988 2 952 15 -22 8 -62 20 -89 26
l-50 10 45 22 c28 13 51 34 64 57 l20 36 40 -18 c52 -24 97 -24 118 -1 22 24
21 27 -4 62 -18 23 -20 36 -15 74 5 30 14 49 27 56 26 14 26 70 -1 93 -11 9
-20 28 -20 42 0 31 -29 51 -97 65 l-52 11 -3 57 c-3 50 -5 57 -23 54 -11 -1
-74 -5 -140 -8 -89 -4 -126 -2 -142 8 -12 7 -59 33 -105 57 -45 24 -87 47 -93
51 -18 13 -64 21 -89 14 -13 -3 -31 -19 -38 -35 l-14 -29 -46 29 c-55 35 -117
99 -140 143 -9 18 -37 77 -62 132 -71 152 -155 259 -252 319 -50 31 -108 102
-100 122 17 46 149 43 249 -4 103 -49 147 -86 148 -124 1 -27 2 -29 8 -9 l6
23 26 -28 c15 -15 48 -62 75 -103 64 -101 147 -180 231 -221 l68 -34 175 0
c125 -1 182 -4 198 -14 40 -22 186 -60 208 -55 24 6 84 75 84 96 0 8 -5 19
-11 25 -21 21 -6 57 26 64 17 3 54 18 83 33 28 16 69 32 89 36 45 11 127 -5
163 -30 14 -10 42 -25 64 -34 32 -13 37 -20 32 -38 -7 -28 13 -76 35 -83 8 -3
44 -32 79 -65 64 -60 64 -60 125 -60 34 0 108 7 166 15 100 15 113 18 159 31
20 5 20 2 18 -162 l-3 -167 -40 -14 c-22 -8 -67 -19 -99 -24 -73 -12 -96 -24
-96 -50 0 -25 -16 -57 -43 -87 l-21 -22 31 -44 c46 -65 48 -80 19 -123 -14
-21 -26 -43 -26 -49 0 -15 23 -34 47 -38 24 -5 195 28 219 42 14 8 21 4 34
-22 9 -17 31 -38 49 -48 18 -9 29 -18 24 -21 -16 -10 -149 -46 -183 -50 -19
-2 427 -5 992 -5 l1028 -2 0 2560 0 2560 -2560 0 -2560 0 0 -2560z m2458 2493
c-16 -2 -40 -2 -55 0 -16 2 -3 4 27 4 30 0 43 -2 28 -4z m260 0 c-16 -2 -40
-2 -55 0 -16 2 -3 4 27 4 30 0 43 -2 28 -4z m-415 -10 c-7 -2 -19 -2 -25 0 -7
3 -2 5 12 5 14 0 19 -2 13 -5z m540 0 c-7 -2 -19 -2 -25 0 -7 3 -2 5 12 5 14
0 19 -2 13 -5z m-756 -29 c-3 -3 -12 -4 -19 -1 -8 3 -5 6 6 6 11 1 17 -2 13
-5z m970 0 c-3 -3 -12 -4 -19 -1 -8 3 -5 6 6 6 11 1 17 -2 13 -5z m-2077 -498
c0 -2 -8 -10 -17 -17 -16 -13 -17 -12 -4 4 13 16 21 21 21 13z m-60 -50 c0 -2
-8 -10 -17 -17 -16 -13 -17 -12 -4 4 13 16 21 21 21 13z m3301 -13 c13 -16 12
-17 -3 -4 -17 13 -22 21 -14 21 2 0 10 -8 17 -17z m-3401 -78 c-24 -25 -46
-45 -49 -45 -3 0 15 20 39 45 24 25 46 45 49 45 3 0 -15 -20 -39 -45z m3530
-42 c0 -8 -9 0 -50 45 l-45 47 48 -45 c26 -24 47 -45 47 -47z m-3660 -88 c-24
-25 -46 -45 -49 -45 -3 0 15 20 39 45 24 25 46 45 49 45 3 0 -15 -20 -39 -45z
m3790 -42 c0 -8 -9 0 -50 45 l-45 47 48 -45 c26 -24 47 -45 47 -47z m-3860
-37 c0 -2 -8 -10 -17 -17 -16 -13 -17 -12 -4 4 13 16 21 21 21 13z m3901 -13
c13 -16 12 -17 -3 -4 -17 13 -22 21 -14 21 2 0 10 -8 17 -17z m-3951 -47 c0
-2 -8 -10 -17 -17 -16 -13 -17 -12 -4 4 13 16 21 21 21 13z m4001 -13 c13 -16
12 -17 -3 -4 -17 13 -22 21 -14 21 2 0 10 -8 17 -17z m-2386 -333 c10 -11 23
-20 30 -20 6 0 21 -11 33 -25 17 -20 22 -38 22 -83 0 -108 -8 -129 -56 -157
-56 -33 -112 -39 -268 -30 -142 8 -159 16 -151 68 3 18 10 41 15 52 5 11 13
43 18 70 5 32 13 49 21 47 7 -1 10 2 6 8 -3 5 -2 10 3 10 6 0 9 7 8 16 -1 13
10 17 49 20 28 2 86 12 130 23 104 25 118 25 140 1z m-282 -504 c15 -11 19
-31 21 -93 7 -178 63 -270 185 -307 54 -16 71 -17 137 -7 141 21 223 118 240
285 4 35 9 68 13 72 17 25 48 30 111 20 77 -13 79 -17 111 -159 24 -110 58
-165 132 -216 58 -40 114 -53 225 -53 90 0 93 -1 90 -21 -2 -17 -14 -25 -47
-33 -89 -21 -121 -79 -121 -221 0 -105 -4 -117 -36 -127 -18 -5 -24 0 -38 38
-12 31 -25 47 -47 56 -27 12 -32 11 -59 -15 -15 -15 -31 -43 -35 -63 -10 -56
-22 -72 -55 -72 -39 0 -56 20 -64 74 -11 74 -69 99 -120 51 -18 -17 -26 -34
-26 -58 0 -59 -40 -86 -92 -60 -20 9 -29 23 -33 51 -10 56 -12 60 -44 76 l-30
16 -28 -52 c-60 -112 -152 -75 -143 57 8 133 5 155 -26 185 -22 22 -47 33
-103 45 -41 8 -80 20 -86 25 -6 5 -40 16 -76 24 -62 15 -65 15 -84 -5 l-20
-20 30 -25 c17 -13 48 -33 71 -44 22 -11 52 -32 66 -47 24 -26 78 -139 78
-164 0 -11 10 -35 52 -126 11 -24 26 -71 33 -105 7 -35 16 -74 19 -88 5 -20
-2 -34 -33 -67 -37 -39 -44 -43 -90 -43 -33 0 -65 8 -98 25 -26 13 -70 26 -98
29 -41 3 -50 7 -50 22 0 16 -11 20 -80 26 -44 3 -95 11 -113 17 -39 12 -34 11
-77 11 -23 0 -35 5 -35 14 0 7 -10 21 -22 30 l-23 17 27 -4 c21 -3 29 1 34 15
3 11 4 20 2 21 -36 19 -46 35 -76 118 -48 133 -60 232 -50 419 13 244 59 367
166 438 43 28 382 43 415 18z m-1856 -268 c-3 -8 -6 -5 -6 6 -1 11 2 17 5 13
3 -3 4 -12 1 -19z m5030 0 c-3 -8 -6 -5 -6 6 -1 11 2 17 5 13 3 -3 4 -12 1
-19z m-5040 -60 c-3 -8 -6 -5 -6 6 -1 11 2 17 5 13 3 -3 4 -12 1 -19z m5050 0
c-3 -8 -6 -5 -6 6 -1 11 2 17 5 13 3 -3 4 -12 1 -19z m-904 -333 c0 -152 -5
-236 -14 -273 -13 -49 -14 -26 -16 265 -2 305 -1 316 15 273 13 -37 16 -85 15
-265z m-4156 273 c-3 -8 -6 -5 -6 6 -1 11 2 17 5 13 3 -3 4 -12 1 -19z m5070
0 c-3 -8 -6 -5 -6 6 -1 11 2 17 5 13 3 -3 4 -12 1 -19z m-5080 -90 c-3 -7 -5
-2 -5 12 0 14 2 19 5 13 2 -7 2 -19 0 -25z m5090 0 c-3 -7 -5 -2 -5 12 0 14 2
19 5 13 2 -7 2 -19 0 -25z m-4170 -225 c-2 -37 -3 -9 -3 62 0 72 1 102 3 68 2
-34 2 -93 0 -130z m236 76 c5 -20 -26 -69 -38 -58 -10 11 -18 77 -11 95 6 16
8 16 25 0 11 -10 21 -26 24 -37z m2041 -379 c-2 -43 -2 -43 -20 -26 -8 9 -13
20 -9 26 3 6 -1 7 -9 4 -9 -3 -16 -1 -16 4 0 10 18 18 45 21 6 0 9 -12 9 -29z
m936 -16 c0 -9 -8 -41 -17 -72 l-18 -57 -3 52 c-3 52 10 93 28 93 6 0 10 -7
10 -16z m-1863 -9 c2 -1 6 -23 9 -48 8 -56 -6 -77 -50 -77 -43 1 -70 23 -57
47 6 10 17 35 25 56 14 34 18 37 43 31 15 -4 29 -8 30 -9z m-2270 -27 c-3 -7
-5 -2 -5 12 0 14 2 19 5 13 2 -7 2 -19 0 -25z m5090 0 c-3 -7 -5 -2 -5 12 0
14 2 19 5 13 2 -7 2 -19 0 -25z m-2602 -49 c0 -39 -3 -44 -24 -47 -31 -5 -50
19 -43 56 7 40 20 52 45 43 18 -7 22 -16 22 -52z m223 -2 c5 -56 -34 -48 -52
10 -5 16 -2 23 11 26 31 8 38 2 41 -36z m-2701 -39 c-3 -7 -5 -2 -5 12 0 14 2
19 5 13 2 -7 2 -19 0 -25z m5070 0 c-3 -7 -5 -2 -5 12 0 14 2 19 5 13 2 -7 2
-19 0 -25z m-4067 -38 c0 -13 -1 -13 -10 0 -5 8 -10 22 -10 30 0 13 1 13 10 0
5 -8 10 -22 10 -30z m-993 -22 c-3 -8 -6 -5 -6 6 -1 11 2 17 5 13 3 -3 4 -12
1 -19z m5050 0 c-3 -8 -6 -5 -6 6 -1 11 2 17 5 13 3 -3 4 -12 1 -19z m-5040
-50 c-3 -8 -6 -5 -6 6 -1 11 2 17 5 13 3 -3 4 -12 1 -19z m5030 0 c-3 -8 -6
-5 -6 6 -1 11 2 17 5 13 3 -3 4 -12 1 -19z m-1852 -597 c-11 -4 -59 -13 -107
-20 l-88 -13 33 -42 c41 -51 67 -92 67 -106 0 -18 -29 -11 -40 10 -10 19 -21
20 -280 20 -147 0 -275 3 -284 6 -19 7 -22 84 -4 102 9 9 71 12 220 12 197 0
208 1 218 20 10 19 21 20 148 19 76 0 128 -4 117 -8z m-1221 -203 c-6 -10 -4
-10 7 -2 15 12 30 11 71 -4 37 -15 42 -28 21 -57 -16 -22 -25 -25 -68 -23 -58
2 -75 6 -75 20 0 18 32 78 42 78 5 0 6 -6 2 -12z m1166 -90 c0 -11 -177 -10
-184 1 -12 19 25 32 83 30 34 -1 64 1 68 5 7 7 33 -21 33 -36z m-2649 -155
c13 -16 12 -17 -3 -4 -10 7 -18 15 -18 17 0 8 8 3 21 -13z m4099 13 c0 -2 -8
-10 -17 -17 -16 -13 -17 -12 -4 4 13 16 21 21 21 13z m-4059 -63 c13 -16 12
-17 -3 -4 -10 7 -18 15 -18 17 0 8 8 3 21 -13z m4019 13 c0 -2 -8 -10 -17 -17
-16 -13 -17 -12 -4 4 13 16 21 21 21 13z m-3920 -131 c19 -19 32 -35 29 -35
-3 0 -20 16 -39 35 -19 19 -32 35 -29 35 3 0 20 -16 39 -35z m3840 32 c0 -2
-17 -19 -37 -38 l-38 -34 34 38 c33 34 41 42 41 34z m-3740 -142 c13 -14 21
-25 18 -25 -2 0 -15 11 -28 25 -13 14 -21 25 -18 25 2 0 15 -11 28 -25z m3630
22 c0 -2 -12 -14 -27 -28 l-28 -24 24 28 c23 25 31 32 31 24z m-3514 -129 l29
-33 -32 29 c-31 28 -38 36 -30 36 2 0 16 -15 33 -32z m3404 29 c0 -2 -15 -16
-32 -33 l-33 -29 29 33 c28 30 36 37 36 29z m-80 -71 c0 -2 -8 -10 -17 -17
-16 -13 -17 -12 -4 4 13 16 21 21 21 13z m-3209 -53 c13 -16 12 -17 -3 -4 -10
7 -18 15 -18 17 0 8 8 3 21 -13z m3159 13 c0 -2 -8 -10 -17 -17 -16 -13 -17
-12 -4 4 13 16 21 21 21 13z m-3109 -53 c13 -16 12 -17 -3 -4 -10 7 -18 15
-18 17 0 8 8 3 21 -13z m3059 13 c0 -2 -8 -10 -17 -17 -16 -13 -17 -12 -4 4
13 16 21 21 21 13z m-2333 -382 c-3 -3 -12 -4 -19 -1 -8 3 -5 6 6 6 11 1 17
-2 13 -5z m1610 0 c-3 -3 -12 -4 -19 -1 -8 3 -5 6 6 6 11 1 17 -2 13 -5z"/>
<path d="M2541 2915 c-17 -20 -31 -42 -31 -49 0 -8 -7 -20 -17 -27 -21 -18
-73 -127 -73 -154 0 -11 7 -31 16 -43 28 -41 65 -51 180 -53 l109 -1 27 33
c18 22 28 45 28 66 0 39 -12 63 -103 206 -33 51 -41 57 -71 57 -26 0 -41 -8
-65 -35z"/>
<path d="M1500 2211 c0 -6 5 -13 10 -16 6 -3 10 -2 10 4 0 5 12 12 28 14 22 3
20 4 -10 6 -21 0 -38 -3 -38 -8z"/>
<path d="M768 1457 c-4 -9 -18 -21 -30 -26 -23 -9 -23 -9 5 -16 34 -9 39 -5
35 32 -2 22 -4 24 -10 10z"/>
</g>
</svg>
