<?xml version="1.0" standalone="no"?>
<!DOCTYPE svg PUBLIC "-//W3C//DTD SVG 20010904//EN"
 "http://www.w3.org/TR/2001/REC-SVG-20010904/DTD/svg10.dtd">
<svg version="1.0" xmlns="http://www.w3.org/2000/svg"
 width="128.000000pt" height="128.000000pt" viewBox="0 0 128.000000 128.000000"
 preserveAspectRatio="xMidYMid meet">
<metadata>
Created by potrace 1.16, written by Peter Selinger 2001-2019
</metadata>
<g transform="translate(0.000000,128.000000) scale(0.100000,-0.100000)"
fill="#000000" stroke="none">
<path d="M0 640 c0 -613 1 -640 18 -640 20 0 34 43 56 175 l12 71 -28 -4 c-34
-5 -35 -3 -7 128 18 84 25 100 41 100 10 0 21 -7 24 -15 5 -11 10 -12 27 -4
25 14 106 5 146 -16 30 -15 31 -15 31 5 0 11 7 23 15 26 13 5 115 -27 189 -61
38 -17 21 -24 -37 -15 -76 11 -72 -12 9 -43 43 -16 68 -8 57 19 -3 8 7 15 30
19 40 8 77 -1 77 -18 0 -7 12 -20 26 -31 25 -18 29 -18 92 -2 37 9 72 23 78
31 6 8 19 12 31 9 12 -3 32 1 45 10 24 16 41 11 51 -14 4 -11 6 -9 6 6 2 44
45 63 150 69 l69 4 11 -44 c23 -93 5 -140 -20 -55 -18 59 -21 42 -10 -49 8
-60 8 -87 -1 -100 -9 -15 -9 -37 1 -92 19 -111 18 -109 57 -109 l34 0 0 640 0
640 -640 0 -640 0 0 -640z m745 565 c28 -14 23 -15 -73 -12 -66 2 -101 -1 -99
-7 4 -13 82 -28 124 -23 17 1 29 -1 27 -5 -3 -4 -35 -8 -72 -8 -67 0 -112 14
-119 37 -10 30 158 44 212 18z m-245 -35 c0 -24 68 -43 168 -48 65 -3 100 -8
94 -14 -16 -16 -124 -21 -185 -8 -61 12 -115 49 -103 68 9 14 26 16 26 2z m36
-105 c76 -8 166 -15 199 -16 54 -1 57 -2 30 -11 -17 -5 -89 -7 -170 -4 -178 8
-240 24 -219 57 5 8 8 8 13 0 4 -6 70 -18 147 -26z m27 -79 c21 -16 22 -62 1
-70 -20 -8 -79 -8 -86 0 -12 12 10 60 33 71 29 15 30 15 52 -1z m-56 -151 c6
-41 20 -55 56 -55 37 0 67 25 67 57 0 18 5 23 25 23 18 0 25 -5 25 -19 0 -10
10 -31 21 -46 19 -23 28 -26 61 -23 l40 4 -26 -21 c-16 -13 -26 -31 -26 -46 0
-34 -10 -42 -26 -21 -13 16 -14 15 -20 -5 -3 -13 -10 -23 -14 -23 -4 0 -15 10
-23 23 l-16 22 -7 -22 c-8 -29 -30 -30 -38 -1 -5 22 -6 22 -20 3 -12 -16 -17
-17 -24 -7 -5 7 -7 24 -5 36 4 19 -1 26 -28 35 -50 17 -69 14 -42 -7 13 -9 32
-42 42 -72 17 -47 18 -57 6 -69 -12 -12 -19 -12 -48 3 -19 9 -49 16 -65 16
-17 0 -34 5 -37 10 -3 6 -2 10 4 10 5 0 4 12 -5 28 -19 36 -18 135 2 173 14
28 18 30 66 27 49 -3 52 -5 55 -33z m-172 -104 c3 -5 1 -12 -5 -16 -5 -3 -10
1 -10 9 0 18 6 21 15 7z m465 -91 c0 -5 -2 -10 -4 -10 -3 0 -8 5 -11 10 -3 6
-1 10 4 10 6 0 11 -4 11 -10z m-210 -15 c0 -8 -7 -15 -15 -15 -9 0 -12 6 -9
15 4 8 10 15 15 15 5 0 9 -7 9 -15z m50 -5 c0 -5 -4 -10 -10 -10 -5 0 -10 5
-10 10 0 6 5 10 10 10 6 0 10 -4 10 -10z m50 0 c0 -5 -2 -10 -4 -10 -3 0 -8 5
-11 10 -3 6 -1 10 4 10 6 0 11 -4 11 -10z m123 -237 c-13 -2 -35 -2 -50 0 -16
2 -5 4 22 4 28 0 40 -2 28 -4z"/>
<path d="M634 775 c-22 -33 -12 -55 25 -55 39 0 45 13 26 50 -19 37 -30 38
-51 5z"/>
<path d="M357 284 c-3 -18 2 -33 15 -46 23 -23 113 -66 147 -70 20 -3 24 2 26
30 3 35 -15 62 -42 62 -8 0 -37 11 -65 25 -63 32 -74 31 -81 -1z"/>
<path d="M830 274 c-30 -13 -62 -24 -70 -24 -20 0 -43 -37 -29 -45 5 -4 7 -16
3 -27 -6 -20 -3 -20 36 -14 46 7 129 46 148 69 15 18 -1 68 -20 66 -7 -1 -38
-12 -68 -25z"/>
<path d="M1023 115 c0 -39 -5 -80 -12 -93 -11 -21 -10 -22 20 -22 24 0 29 3
22 13 -6 6 -11 40 -11 75 -1 35 -6 71 -11 80 -6 11 -9 -6 -8 -53z"/>
<path d="M335 150 c-10 -16 15 -88 41 -120 24 -28 31 -30 89 -30 67 0 75 6 75
55 0 17 -7 24 -31 29 -16 3 -61 21 -99 40 -38 20 -72 31 -75 26z"/>
<path d="M878 119 c-21 -10 -61 -25 -90 -33 -51 -13 -53 -15 -53 -47 l0 -34
75 -3 75 -3 28 43 c28 44 36 98 15 98 -7 -1 -30 -10 -50 -21z"/>
<path d="M245 59 c-4 -13 -14 -32 -23 -41 -14 -17 -13 -18 21 -18 21 0 37 1
37 3 0 1 -6 20 -14 41 -13 37 -14 38 -21 15z"/>
</g>
</svg>
