<?xml version="1.0" standalone="no"?>
<!DOCTYPE svg PUBLIC "-//W3C//DTD SVG 20010904//EN"
 "http://www.w3.org/TR/2001/REC-SVG-20010904/DTD/svg10.dtd">
<svg version="1.0" xmlns="http://www.w3.org/2000/svg"
 width="400.000000pt" height="400.000000pt" viewBox="0 0 400.000000 400.000000"
 preserveAspectRatio="xMidYMid meet">
<metadata>
Created by potrace 1.16, written by Peter Selinger 2001-2019
</metadata>
<g transform="translate(0.000000,400.000000) scale(0.100000,-0.100000)"
fill="#000000" stroke="none">
<path d="M0 2000 l0 -2000 2000 0 2000 0 0 2000 0 2000 -2000 0 -2000 0 0
-2000z m2612 1006 c76 -20 152 -60 203 -107 43 -40 45 -40 82 -29 107 35 163
56 215 82 32 15 60 28 64 28 4 0 4 -14 0 -32 -8 -41 -58 -120 -116 -182 l-45
-49 43 7 c24 3 75 17 115 31 39 13 73 22 76 20 9 -10 -65 -107 -129 -169 -51
-50 -70 -75 -70 -94 0 -14 -8 -34 -17 -44 -10 -11 -20 -40 -24 -66 l-6 -47 -2
62 c-1 50 3 64 17 75 20 14 36 68 21 68 -5 0 -9 11 -9 25 0 14 -4 25 -10 25
-5 0 -10 11 -10 23 0 13 -9 32 -20 42 -12 10 -18 25 -15 32 2 8 -4 24 -15 36
-11 12 -36 41 -56 65 -20 23 -42 42 -48 42 -6 0 -18 9 -26 20 -8 11 -18 20
-22 20 -4 0 -8 -9 -8 -20 0 -19 -4 -22 -32 -24 -6 -1 -16 15 -23 34 -8 25 -19
36 -36 38 -13 2 -29 12 -37 23 -11 16 -22 18 -90 13 -117 -9 -182 -9 -234 0
-41 7 -48 6 -48 -7 0 -25 73 -40 197 -41 61 0 110 -3 108 -7 -15 -24 -225 -27
-301 -4 -27 8 -56 24 -65 36 -14 19 -18 20 -37 8 -35 -22 -33 -35 7 -57 63
-36 172 -53 321 -51 76 1 136 -3 137 -8 2 -5 -23 -18 -55 -27 -126 -39 -395
-4 -458 59 l-23 23 -30 -29 c-17 -15 -37 -42 -46 -58 l-15 -30 32 -5 c91 -15
447 -46 534 -47 l99 0 -45 -15 c-78 -25 -445 -18 -612 12 -28 5 -38 3 -38 -6
0 -7 -2 -11 -5 -8 -8 7 34 98 64 138 62 84 165 160 217 160 13 0 26 5 29 10 3
6 19 10 35 10 16 0 31 4 34 9 8 12 165 4 228 -13z m-1422 -324 c36 -26 67 -49
70 -53 15 -21 250 -133 343 -163 93 -31 228 -56 304 -56 28 0 43 28 53 94 6
46 7 43 7 -33 l1 -83 -52 6 c-28 4 -66 9 -84 13 l-33 5 3 -220 c2 -160 6 -224
16 -234 6 -6 12 -27 12 -45 0 -18 4 -41 9 -51 5 -9 15 -45 22 -79 11 -61 13
-63 48 -69 20 -3 50 -12 66 -19 139 -59 257 -95 315 -96 104 -3 180 -32 180
-68 0 -28 65 -71 107 -71 44 0 48 3 87 50 l29 35 -48 5 c-71 7 -74 32 -4 30
71 -3 76 -2 82 13 4 10 -3 12 -25 9 -16 -3 -39 1 -51 7 -12 6 -67 12 -122 13
-78 2 -100 6 -100 17 0 11 17 14 82 12 49 -1 84 2 88 8 9 15 108 14 123 -1 9
-9 12 -9 12 -1 0 7 12 13 27 15 21 2 33 15 59 66 17 35 35 66 39 70 15 15 -47
-114 -64 -133 -10 -11 -28 -38 -40 -60 -49 -92 -68 -115 -174 -218 -115 -111
-172 -154 -339 -250 -91 -53 -170 -84 -298 -120 -30 -9 -73 -21 -95 -27 -22
-6 -128 -13 -235 -16 -107 -2 -219 -6 -247 -8 -41 -4 -53 -1 -53 10 0 9 -11
14 -32 14 -45 0 -259 65 -348 106 -85 39 -180 95 -180 105 0 4 69 9 153 12 97
3 174 10 212 21 83 23 215 76 215 87 0 5 8 9 18 9 22 0 112 56 112 69 0 17
-79 34 -95 21 -9 -8 -14 -7 -18 3 -3 7 -35 28 -71 47 -107 54 -246 218 -246
289 0 17 5 19 59 14 33 -3 72 -2 88 2 28 7 27 7 -27 36 -30 15 -64 32 -75 37
-33 16 -148 144 -172 192 -30 61 -49 124 -58 187 -8 63 2 71 59 48 39 -17 126
-36 126 -28 0 3 -22 29 -48 59 -132 148 -171 353 -100 534 35 90 30 91 142
-21 56 -56 130 -122 166 -147z m787 -84 c-3 -8 -6 -5 -6 6 -1 11 2 17 5 13 3
-3 4 -12 1 -19z m342 -9 c33 -32 37 -44 21 -54 -5 -3 -10 -15 -10 -26 0 -27
-37 -39 -121 -39 -80 0 -88 8 -69 67 20 62 46 83 101 83 40 0 53 -5 78 -31z
m-128 -244 c9 -76 38 -105 105 -105 61 0 99 37 109 103 6 40 11 47 30 47 41 0
54 -11 61 -48 15 -85 57 -122 139 -122 25 0 45 -4 45 -10 0 -5 -6 -10 -13 -10
-31 0 -51 -28 -57 -81 -5 -54 -24 -75 -35 -40 -9 31 -35 26 -48 -9 -11 -30
-47 -43 -47 -17 0 7 -6 22 -14 32 -12 16 -16 17 -30 6 -9 -7 -16 -22 -16 -32
0 -29 -39 -24 -50 6 -11 30 -26 32 -40 5 -24 -46 -66 -5 -55 53 5 23 2 37 -8
45 -15 12 -102 42 -124 42 -23 0 -14 -18 20 -37 31 -19 49 -55 93 -188 14 -42
-11 -70 -58 -62 -156 26 -232 55 -222 82 3 8 -2 38 -11 66 -13 40 -16 74 -13
143 9 159 44 196 188 192 l45 -1 6 -60z m806 -42 c-3 -10 -5 -2 -5 17 0 19 2
27 5 18 2 -10 2 -26 0 -35z m-10 -80 c-3 -10 -5 -4 -5 12 0 17 2 24 5 18 2 -7
2 -21 0 -30z m-10 -45 c-3 -8 -6 -5 -6 6 -1 11 2 17 5 13 3 -3 4 -12 1 -19z
m-1077 -28 c0 -11 -7 -20 -15 -20 -8 0 -15 9 -15 20 0 11 7 20 15 20 8 0 15
-9 15 -20z m1067 -22 c-3 -8 -6 -5 -6 6 -1 11 2 17 5 13 3 -3 4 -12 1 -19z
m-10 -40 c-3 -8 -6 -5 -6 6 -1 11 2 17 5 13 3 -3 4 -12 1 -19z m113 -48 c0
-22 -4 -40 -10 -40 -11 0 -14 63 -3 73 11 12 13 8 13 -33z m-364 -36 c-7 -26
-36 -34 -36 -10 0 8 8 28 18 45 15 28 17 29 20 10 2 -12 1 -32 -2 -45z m225
-11 c-12 -20 -14 -14 -5 12 4 9 9 14 11 11 3 -2 0 -13 -6 -23z m-597 -15 c7
-29 -6 -42 -33 -33 -17 5 -19 9 -9 31 14 30 34 31 42 2z m83 -4 c8 -20 -13
-42 -27 -28 -12 12 -3 44 11 44 5 0 12 -7 16 -16z m91 -12 c2 -7 -3 -12 -12
-12 -9 0 -16 7 -16 16 0 17 22 14 28 -4z m82 8 c0 -5 -4 -10 -10 -10 -5 0 -10
5 -10 10 0 6 5 10 10 10 6 0 10 -4 10 -10z m301 -87 c-12 -20 -14 -14 -5 12 4
9 9 14 11 11 3 -2 0 -13 -6 -23z m136 -55 c-3 -7 -5 -2 -5 12 0 14 2 19 5 13
2 -7 2 -19 0 -25z m-17 -52 c0 -13 -9 -34 -19 -47 -20 -24 -20 -24 -3 24 9 26
18 47 19 47 2 0 3 -11 3 -24z"/>
<path d="M1440 1709 c0 -5 5 -7 10 -4 6 3 10 8 10 11 0 2 -4 4 -10 4 -5 0 -10
-5 -10 -11z"/>
<path d="M1725 1690 c-3 -5 1 -10 10 -10 9 0 13 5 10 10 -3 6 -8 10 -10 10 -2
0 -7 -4 -10 -10z"/>
<path d="M1421 1664 c0 -11 3 -14 6 -6 3 7 2 16 -1 19 -3 4 -6 -2 -5 -13z"/>
<path d="M2264 1569 c-4 -7 -39 -10 -98 -7 -75 2 -91 0 -91 -12 0 -9 27 -25
70 -42 105 -41 131 -36 127 24 -1 15 2 28 8 28 5 0 10 5 10 10 0 13 -17 13
-26 -1z"/>
<path d="M1385 1521 c-3 -5 -1 -12 5 -16 5 -3 10 1 10 9 0 18 -6 21 -15 7z"/>
<path d="M1946 1422 c-3 -5 -8 -27 -12 -49 -5 -35 -3 -42 24 -65 27 -22 154
-89 207 -109 64 -24 107 -20 84 7 -9 11 -9 21 0 42 22 52 5 70 -94 103 -50 17
-109 41 -132 55 -43 25 -68 30 -77 16z"/>
<path d="M1333 1305 c-9 -10 -13 -58 -13 -159 l0 -145 38 -3 c36 -3 37 -2 50
42 12 41 21 90 38 216 6 41 5 42 -28 47 -18 3 -42 8 -53 11 -12 3 -25 0 -32
-9z"/>
<path d="M1902 1143 c-8 -14 1 -83 13 -104 3 -3 37 3 76 14 l71 21 -24 18
c-12 9 -27 18 -31 18 -5 0 -21 8 -35 18 -42 29 -60 33 -70 15z"/>
<path d="M2410 2234 c-16 -26 -30 -53 -30 -59 0 -23 26 -35 77 -35 48 0 53 2
59 25 4 17 -2 36 -23 66 -15 23 -34 44 -40 46 -7 3 -26 -17 -43 -43z"/>
</g>
</svg>
